<?xml version="1.0" encoding="UTF-8" standalone="no"?>
<!DOCTYPE svg PUBLIC "-//W3C//DTD SVG 1.1//EN"
 "http://www.w3.org/Graphics/SVG/1.1/DTD/svg11.dtd">
<!-- Generated by graphviz version 13.0.1 (0)
 -->
<!-- Title: G Pages: 1 -->
<svg width="510pt" height="98pt"
 viewBox="0.00 0.00 510.00 98.00" xmlns="http://www.w3.org/2000/svg" xmlns:xlink="http://www.w3.org/1999/xlink">
<g id="graph0" class="graph" transform="scale(1 1) rotate(0) translate(4 93.8)">
<title>G</title>
<polygon fill="#4a4a4a" stroke="none" points="-4,4 -4,-93.8 506.05,-93.8 506.05,4 -4,4"/>
<!-- n_0 -->
<g id="node1" class="node">
<title>n_0</title>
<ellipse fill="white" stroke="white" cx="91.8" cy="-43.05" rx="1.8" ry="1.8"/>
<text xml:space="preserve" text-anchor="middle" x="84" y="-27.95" font-family="Times,serif" font-size="14.00" fill="white">ℝ</text>
</g>
<!-- e_0 -->
<g id="node5" class="node">
<title>e_0</title>
<path fill="none" stroke="white" d="M141.6,-5.8C141.6,-5.8 200.85,-5.8 200.85,-5.8 206.85,-5.8 212.85,-11.8 212.85,-17.8 212.85,-17.8 212.85,-44.3 212.85,-44.3 212.85,-50.3 206.85,-56.3 200.85,-56.3 200.85,-56.3 141.6,-56.3 141.6,-56.3 135.6,-56.3 129.6,-50.3 129.6,-44.3 129.6,-44.3 129.6,-17.8 129.6,-17.8 129.6,-11.8 135.6,-5.8 141.6,-5.8"/>
<text xml:space="preserve" text-anchor="middle" x="139.85" y="-39" font-family="Times,serif" font-size="14.00" fill="white"> </text>
<polyline fill="none" stroke="white" points="129.6,-31.05 150.1,-31.05"/>
<text xml:space="preserve" text-anchor="middle" x="139.85" y="-13.75" font-family="Times,serif" font-size="14.00" fill="white"> </text>
<polyline fill="none" stroke="white" points="150.1,-5.8 150.1,-56.3"/>
<text xml:space="preserve" text-anchor="middle" x="171.23" y="-26.37" font-family="Times,serif" font-size="14.00" fill="white">add</text>
<polyline fill="none" stroke="white" points="192.35,-5.8 192.35,-56.3"/>
<text xml:space="preserve" text-anchor="middle" x="202.6" y="-26.5" font-family="Times,serif" font-size="14.00" fill="white"> </text>
</g>
<!-- n_0&#45;&gt;e_0 -->
<g id="edge4" class="edge">
<title>n_0&#45;&gt;e_0:s_0</title>
<path fill="none" stroke="white" d="M93.94,-43.08C98.47,-43.21 115.54,-43.68 129.6,-43.67"/>
</g>
<!-- e_1 -->
<g id="node6" class="node">
<title>e_1</title>
<path fill="none" stroke="white" d="M300.45,-38.8C300.45,-38.8 360.45,-38.8 360.45,-38.8 366.45,-38.8 372.45,-44.8 372.45,-50.8 372.45,-50.8 372.45,-77.3 372.45,-77.3 372.45,-83.3 366.45,-89.3 360.45,-89.3 360.45,-89.3 300.45,-89.3 300.45,-89.3 294.45,-89.3 288.45,-83.3 288.45,-77.3 288.45,-77.3 288.45,-50.8 288.45,-50.8 288.45,-44.8 294.45,-38.8 300.45,-38.8"/>
<text xml:space="preserve" text-anchor="middle" x="298.7" y="-72" font-family="Times,serif" font-size="14.00" fill="white"> </text>
<polyline fill="none" stroke="white" points="288.45,-64.05 308.95,-64.05"/>
<text xml:space="preserve" text-anchor="middle" x="298.7" y="-46.75" font-family="Times,serif" font-size="14.00" fill="white"> </text>
<polyline fill="none" stroke="white" points="308.95,-38.8 308.95,-89.3"/>
<text xml:space="preserve" text-anchor="middle" x="330.45" y="-59.38" font-family="Times,serif" font-size="14.00" fill="white">mul</text>
<polyline fill="none" stroke="white" points="351.95,-38.8 351.95,-89.3"/>
<text xml:space="preserve" text-anchor="middle" x="362.2" y="-59.5" font-family="Times,serif" font-size="14.00" fill="white"> </text>
</g>
<!-- n_0&#45;&gt;e_1 -->
<g id="edge7" class="edge">
<title>n_0&#45;&gt;e_1:s_0</title>
<path fill="none" stroke="white" d="M93.84,-43.98C97.99,-47.63 113.83,-60.95 129.6,-66.05 196.93,-87.82 217.69,-76.68 288.45,-76.67"/>
</g>
<!-- n_1 -->
<g id="node2" class="node">
<title>n_1</title>
<ellipse fill="white" stroke="white" cx="91.8" cy="-19.05" rx="1.8" ry="1.8"/>
<text xml:space="preserve" text-anchor="middle" x="84" y="-3.95" font-family="Times,serif" font-size="14.00" fill="white">ℝ</text>
</g>
<!-- n_1&#45;&gt;e_0 -->
<g id="edge5" class="edge">
<title>n_1&#45;&gt;e_0:s_1</title>
<path fill="none" stroke="white" d="M93.94,-19.02C98.47,-18.89 115.54,-18.43 129.6,-18.43"/>
</g>
<!-- n_2 -->
<g id="node3" class="node">
<title>n_2</title>
<ellipse fill="white" stroke="white" cx="250.65" cy="-43.05" rx="1.8" ry="1.8"/>
<text xml:space="preserve" text-anchor="middle" x="242.85" y="-27.95" font-family="Times,serif" font-size="14.00" fill="white">ℝ</text>
</g>
<!-- n_2&#45;&gt;e_1 -->
<g id="edge8" class="edge">
<title>n_2&#45;&gt;e_1:s_1</title>
<path fill="none" stroke="white" d="M252.77,-43.5C257.22,-45.24 274.04,-51.42 288.45,-51.42"/>
</g>
<!-- n_3 -->
<g id="node4" class="node">
<title>n_3</title>
<ellipse fill="white" stroke="white" cx="410.25" cy="-64.05" rx="1.8" ry="1.8"/>
<text xml:space="preserve" text-anchor="middle" x="402.45" y="-48.95" font-family="Times,serif" font-size="14.00" fill="white">ℝ</text>
</g>
<!-- targets -->
<g id="node8" class="node">
<title>targets</title>
</g>
<!-- n_3&#45;&gt;targets -->
<g id="edge3" class="edge">
<title>n_3&#45;&gt;targets:p_0</title>
<path fill="none" stroke="white" stroke-dasharray="5,2" d="M412.39,-64.07C416.92,-64.15 433.99,-64.42 448.05,-64.42"/>
</g>
<!-- e_0&#45;&gt;n_2 -->
<g id="edge6" class="edge">
<title>e_0:t_0&#45;&gt;n_2</title>
<path fill="none" stroke="white" d="M212.85,-31.18C227.62,-31.18 244.18,-39.94 248.55,-42.41"/>
</g>
<!-- e_1&#45;&gt;n_3 -->
<g id="edge9" class="edge">
<title>e_1:t_0&#45;&gt;n_3</title>
<path fill="none" stroke="white" d="M372.45,-64.17C386.51,-64.17 403.58,-64.08 408.11,-64.06"/>
</g>
<!-- sources -->
<g id="node7" class="node">
<title>sources</title>
</g>
<!-- sources&#45;&gt;n_0 -->
<g id="edge1" class="edge">
<title>sources:p_0&#45;&gt;n_0</title>
<path fill="none" stroke="white" stroke-dasharray="5,2" d="M54,-43.67C68.06,-43.68 85.13,-43.21 89.66,-43.08"/>
</g>
<!-- sources&#45;&gt;n_1 -->
<g id="edge2" class="edge">
<title>sources:p_1&#45;&gt;n_1</title>
<path fill="none" stroke="white" stroke-dasharray="5,2" d="M54,-18.43C68.06,-18.43 85.13,-18.89 89.66,-19.02"/>
</g>
</g>
</svg>
