<?xml version="1.0" encoding="UTF-8" standalone="no"?>
<!DOCTYPE svg PUBLIC "-//W3C//DTD SVG 1.1//EN"
 "http://www.w3.org/Graphics/SVG/1.1/DTD/svg11.dtd">
<!-- Generated by graphviz version 13.0.1 (0)
 -->
<!-- Title: G Pages: 1 -->
<svg width="357pt" height="135pt"
 viewBox="0.00 0.00 357.00 135.00" xmlns="http://www.w3.org/2000/svg" xmlns:xlink="http://www.w3.org/1999/xlink">
<g id="graph0" class="graph" transform="scale(1 1) rotate(0) translate(4 130.8)">
<title>G</title>
<polygon fill="#4a4a4a" stroke="none" points="-4,4 -4,-130.8 353.2,-130.8 353.2,4 -4,4"/>
<!-- n_0 -->
<g id="node1" class="node">
<title>n_0</title>
<ellipse fill="white" stroke="white" cx="91.8" cy="-113.05" rx="1.8" ry="1.8"/>
<text xml:space="preserve" text-anchor="middle" x="84" y="-97.95" font-family="Times,serif" font-size="14.00" fill="white">ℝ</text>
</g>
<!-- e_0 -->
<g id="node7" class="node">
<title>e_0</title>
<path fill="none" stroke="white" d="M144.97,-75.8C144.97,-75.8 204.22,-75.8 204.22,-75.8 210.22,-75.8 216.22,-81.8 216.22,-87.8 216.22,-87.8 216.22,-114.3 216.22,-114.3 216.22,-120.3 210.22,-126.3 204.22,-126.3 204.22,-126.3 144.97,-126.3 144.97,-126.3 138.97,-126.3 132.97,-120.3 132.97,-114.3 132.97,-114.3 132.97,-87.8 132.97,-87.8 132.97,-81.8 138.97,-75.8 144.97,-75.8"/>
<text xml:space="preserve" text-anchor="middle" x="143.22" y="-109" font-family="Times,serif" font-size="14.00" fill="white"> </text>
<polyline fill="none" stroke="white" points="132.97,-101.05 153.47,-101.05"/>
<text xml:space="preserve" text-anchor="middle" x="143.22" y="-83.75" font-family="Times,serif" font-size="14.00" fill="white"> </text>
<polyline fill="none" stroke="white" points="153.47,-75.8 153.47,-126.3"/>
<text xml:space="preserve" text-anchor="middle" x="174.6" y="-96.38" font-family="Times,serif" font-size="14.00" fill="white">add</text>
<polyline fill="none" stroke="white" points="195.72,-75.8 195.72,-126.3"/>
<text xml:space="preserve" text-anchor="middle" x="205.97" y="-96.5" font-family="Times,serif" font-size="14.00" fill="white"> </text>
</g>
<!-- n_0&#45;&gt;e_0 -->
<g id="edge7" class="edge">
<title>n_0&#45;&gt;e_0:s_0</title>
<path fill="none" stroke="white" d="M94.02,-113.08C98.83,-113.21 117.01,-113.67 131.97,-113.67"/>
</g>
<!-- n_1 -->
<g id="node2" class="node">
<title>n_1</title>
<ellipse fill="white" stroke="white" cx="91.8" cy="-88.05" rx="1.8" ry="1.8"/>
<text xml:space="preserve" text-anchor="middle" x="84" y="-72.95" font-family="Times,serif" font-size="14.00" fill="white">ℝ</text>
</g>
<!-- n_1&#45;&gt;e_0 -->
<g id="edge8" class="edge">
<title>n_1&#45;&gt;e_0:s_1</title>
<path fill="none" stroke="white" d="M94.02,-88.07C98.83,-88.15 117.01,-88.42 131.97,-88.42"/>
</g>
<!-- n_2 -->
<g id="node3" class="node">
<title>n_2</title>
<ellipse fill="white" stroke="white" cx="257.4" cy="-85.05" rx="1.8" ry="1.8"/>
<text xml:space="preserve" text-anchor="middle" x="249.6" y="-69.95" font-family="Times,serif" font-size="14.00" fill="white">ℝ</text>
</g>
<!-- targets -->
<g id="node10" class="node">
<title>targets</title>
</g>
<!-- n_2&#45;&gt;targets -->
<g id="edge4" class="edge">
<title>n_2&#45;&gt;targets:p_0</title>
<path fill="none" stroke="white" stroke-dasharray="5,2" d="M259.47,-84.2C263.72,-80.93 279.91,-69.3 295.2,-69.3"/>
</g>
<!-- n_3 -->
<g id="node4" class="node">
<title>n_3</title>
<ellipse fill="white" stroke="white" cx="91.8" cy="-47.05" rx="1.8" ry="1.8"/>
<text xml:space="preserve" text-anchor="middle" x="84" y="-31.95" font-family="Times,serif" font-size="14.00" fill="white">ℝ</text>
</g>
<!-- e_1 -->
<g id="node8" class="node">
<title>e_1</title>
<path fill="none" stroke="white" d="M141.6,-5.8C141.6,-5.8 207.6,-5.8 207.6,-5.8 213.6,-5.8 219.6,-11.8 219.6,-17.8 219.6,-17.8 219.6,-44.3 219.6,-44.3 219.6,-50.3 213.6,-56.3 207.6,-56.3 207.6,-56.3 141.6,-56.3 141.6,-56.3 135.6,-56.3 129.6,-50.3 129.6,-44.3 129.6,-44.3 129.6,-17.8 129.6,-17.8 129.6,-11.8 135.6,-5.8 141.6,-5.8"/>
<text xml:space="preserve" text-anchor="middle" x="139.85" y="-26.5" font-family="Times,serif" font-size="14.00" fill="white"> </text>
<polyline fill="none" stroke="white" points="150.1,-5.8 150.1,-56.3"/>
<text xml:space="preserve" text-anchor="middle" x="174.6" y="-26.37" font-family="Times,serif" font-size="14.00" fill="white">copy</text>
<polyline fill="none" stroke="white" points="199.1,-5.8 199.1,-56.3"/>
<text xml:space="preserve" text-anchor="middle" x="209.35" y="-39" font-family="Times,serif" font-size="14.00" fill="white"> </text>
<polyline fill="none" stroke="white" points="199.1,-31.05 219.6,-31.05"/>
<text xml:space="preserve" text-anchor="middle" x="209.35" y="-13.75" font-family="Times,serif" font-size="14.00" fill="white"> </text>
</g>
<!-- n_3&#45;&gt;e_1 -->
<g id="edge10" class="edge">
<title>n_3&#45;&gt;e_1:s_0</title>
<path fill="none" stroke="white" d="M93.87,-46.2C98.12,-42.9 114.29,-31.17 129.6,-31.17"/>
</g>
<!-- n_4 -->
<g id="node5" class="node">
<title>n_4</title>
<ellipse fill="white" stroke="white" cx="257.4" cy="-43.05" rx="1.8" ry="1.8"/>
<text xml:space="preserve" text-anchor="middle" x="249.6" y="-27.95" font-family="Times,serif" font-size="14.00" fill="white">ℝ</text>
</g>
<!-- n_4&#45;&gt;targets -->
<g id="edge5" class="edge">
<title>n_4&#45;&gt;targets:p_1</title>
<path fill="none" stroke="white" stroke-dasharray="5,2" d="M259.54,-43.1C264.07,-43.31 281.14,-44.05 295.2,-44.05"/>
</g>
<!-- n_5 -->
<g id="node6" class="node">
<title>n_5</title>
<ellipse fill="white" stroke="white" cx="257.4" cy="-19.05" rx="1.8" ry="1.8"/>
<text xml:space="preserve" text-anchor="middle" x="249.6" y="-3.95" font-family="Times,serif" font-size="14.00" fill="white">ℝ</text>
</g>
<!-- n_5&#45;&gt;targets -->
<g id="edge6" class="edge">
<title>n_5&#45;&gt;targets:p_2</title>
<path fill="none" stroke="white" stroke-dasharray="5,2" d="M259.54,-19.04C264.07,-18.98 281.14,-18.8 295.2,-18.8"/>
</g>
<!-- e_0&#45;&gt;n_2 -->
<g id="edge9" class="edge">
<title>e_0:t_0&#45;&gt;n_2</title>
<path fill="none" stroke="white" d="M217.22,-101.17C233.7,-101.17 251.34,-88.83 255.49,-85.74"/>
</g>
<!-- e_1&#45;&gt;n_4 -->
<g id="edge11" class="edge">
<title>e_1:t_0&#45;&gt;n_4</title>
<path fill="none" stroke="white" d="M219.6,-43.67C233.66,-43.67 250.73,-43.21 255.26,-43.08"/>
</g>
<!-- e_1&#45;&gt;n_5 -->
<g id="edge12" class="edge">
<title>e_1:t_1&#45;&gt;n_5</title>
<path fill="none" stroke="white" d="M219.6,-18.42C233.66,-18.42 250.73,-18.89 255.26,-19.02"/>
</g>
<!-- sources -->
<g id="node9" class="node">
<title>sources</title>
</g>
<!-- sources&#45;&gt;n_0 -->
<g id="edge1" class="edge">
<title>sources:p_0&#45;&gt;n_0</title>
<path fill="none" stroke="white" stroke-dasharray="5,2" d="M54,-113.3C68.06,-113.3 85.13,-113.12 89.66,-113.06"/>
</g>
<!-- sources&#45;&gt;n_1 -->
<g id="edge2" class="edge">
<title>sources:p_1&#45;&gt;n_1</title>
<path fill="none" stroke="white" stroke-dasharray="5,2" d="M54,-88.05C68.06,-88.05 85.13,-88.05 89.66,-88.05"/>
</g>
<!-- sources&#45;&gt;n_3 -->
<g id="edge3" class="edge">
<title>sources:p_2&#45;&gt;n_3</title>
<path fill="none" stroke="white" stroke-dasharray="5,2" d="M54,-62.8C69.29,-62.8 85.48,-51.17 89.73,-47.9"/>
</g>
</g>
</svg>
