<?xml version="1.0" encoding="UTF-8" standalone="no"?>
<!DOCTYPE svg PUBLIC "-//W3C//DTD SVG 1.1//EN"
 "http://www.w3.org/Graphics/SVG/1.1/DTD/svg11.dtd">
<!-- Generated by graphviz version 13.0.1 (0)
 -->
<!-- Title: G Pages: 1 -->
<svg width="675pt" height="65pt"
 viewBox="0.00 0.00 675.00 65.00" xmlns="http://www.w3.org/2000/svg" xmlns:xlink="http://www.w3.org/1999/xlink">
<g id="graph0" class="graph" transform="scale(1 1) rotate(0) translate(4 60.8)">
<title>G</title>
<polygon fill="#4a4a4a" stroke="none" points="-4,4 -4,-60.8 670.9,-60.8 670.9,4 -4,4"/>
<!-- n_0 -->
<g id="node1" class="node">
<title>n_0</title>
<ellipse fill="white" stroke="white" cx="91.8" cy="-43.05" rx="1.8" ry="1.8"/>
<text xml:space="preserve" text-anchor="middle" x="84" y="-27.95" font-family="Times,serif" font-size="14.00" fill="white">ℝ</text>
</g>
<!-- e_0 -->
<g id="node7" class="node">
<title>e_0</title>
<path fill="none" stroke="white" d="M141.6,-5.8C141.6,-5.8 200.85,-5.8 200.85,-5.8 206.85,-5.8 212.85,-11.8 212.85,-17.8 212.85,-17.8 212.85,-44.3 212.85,-44.3 212.85,-50.3 206.85,-56.3 200.85,-56.3 200.85,-56.3 141.6,-56.3 141.6,-56.3 135.6,-56.3 129.6,-50.3 129.6,-44.3 129.6,-44.3 129.6,-17.8 129.6,-17.8 129.6,-11.8 135.6,-5.8 141.6,-5.8"/>
<text xml:space="preserve" text-anchor="middle" x="139.85" y="-39" font-family="Times,serif" font-size="14.00" fill="white"> </text>
<polyline fill="none" stroke="white" points="129.6,-31.05 150.1,-31.05"/>
<text xml:space="preserve" text-anchor="middle" x="139.85" y="-13.75" font-family="Times,serif" font-size="14.00" fill="white"> </text>
<polyline fill="none" stroke="white" points="150.1,-5.8 150.1,-56.3"/>
<text xml:space="preserve" text-anchor="middle" x="171.22" y="-26.37" font-family="Times,serif" font-size="14.00" fill="white">add</text>
<polyline fill="none" stroke="white" points="192.35,-5.8 192.35,-56.3"/>
<text xml:space="preserve" text-anchor="middle" x="202.6" y="-26.5" font-family="Times,serif" font-size="14.00" fill="white"> </text>
</g>
<!-- n_0&#45;&gt;e_0 -->
<g id="edge5" class="edge">
<title>n_0&#45;&gt;e_0:s_0</title>
<path fill="none" stroke="white" d="M93.94,-43.08C98.47,-43.21 115.54,-43.67 129.6,-43.67"/>
</g>
<!-- n_1 -->
<g id="node2" class="node">
<title>n_1</title>
<ellipse fill="white" stroke="white" cx="91.8" cy="-19.05" rx="1.8" ry="1.8"/>
<text xml:space="preserve" text-anchor="middle" x="84" y="-3.95" font-family="Times,serif" font-size="14.00" fill="white">ℝ</text>
</g>
<!-- n_1&#45;&gt;e_0 -->
<g id="edge6" class="edge">
<title>n_1&#45;&gt;e_0:s_1</title>
<path fill="none" stroke="white" d="M93.94,-19.02C98.47,-18.89 115.54,-18.43 129.6,-18.43"/>
</g>
<!-- n_2 -->
<g id="node3" class="node">
<title>n_2</title>
<ellipse fill="white" stroke="white" cx="250.65" cy="-31.05" rx="1.8" ry="1.8"/>
<text xml:space="preserve" text-anchor="middle" x="242.85" y="-15.95" font-family="Times,serif" font-size="14.00" fill="white">ℝ</text>
</g>
<!-- e_1 -->
<g id="node8" class="node">
<title>e_1</title>
<path fill="none" stroke="white" d="M300.45,-13.05C300.45,-13.05 359.7,-13.05 359.7,-13.05 365.7,-13.05 371.7,-19.05 371.7,-25.05 371.7,-25.05 371.7,-37.05 371.7,-37.05 371.7,-43.05 365.7,-49.05 359.7,-49.05 359.7,-49.05 300.45,-49.05 300.45,-49.05 294.45,-49.05 288.45,-43.05 288.45,-37.05 288.45,-37.05 288.45,-25.05 288.45,-25.05 288.45,-19.05 294.45,-13.05 300.45,-13.05"/>
<text xml:space="preserve" text-anchor="middle" x="298.7" y="-26.75" font-family="Times,serif" font-size="14.00" fill="white"> </text>
<polyline fill="none" stroke="white" points="308.95,-13.8 308.95,-49.05"/>
<text xml:space="preserve" text-anchor="middle" x="330.07" y="-26.75" font-family="Times,serif" font-size="14.00" fill="white">neg</text>
<polyline fill="none" stroke="white" points="351.2,-13.8 351.2,-49.05"/>
<text xml:space="preserve" text-anchor="middle" x="361.45" y="-26.75" font-family="Times,serif" font-size="14.00" fill="white"> </text>
</g>
<!-- n_2&#45;&gt;e_1 -->
<g id="edge8" class="edge">
<title>n_2&#45;&gt;e_1:s_0</title>
<path fill="none" stroke="white" d="M252.79,-31.07C257.32,-31.15 274.39,-31.43 288.45,-31.43"/>
</g>
<!-- n_3 -->
<g id="node4" class="node">
<title>n_3</title>
<ellipse fill="white" stroke="white" cx="409.5" cy="-31.05" rx="1.8" ry="1.8"/>
<text xml:space="preserve" text-anchor="middle" x="401.7" y="-15.95" font-family="Times,serif" font-size="14.00" fill="white">ℝ</text>
</g>
<!-- e_2 -->
<g id="node9" class="node">
<title>e_2</title>
<path fill="none" stroke="white" d="M459.3,-5.8C459.3,-5.8 525.3,-5.8 525.3,-5.8 531.3,-5.8 537.3,-11.8 537.3,-17.8 537.3,-17.8 537.3,-44.3 537.3,-44.3 537.3,-50.3 531.3,-56.3 525.3,-56.3 525.3,-56.3 459.3,-56.3 459.3,-56.3 453.3,-56.3 447.3,-50.3 447.3,-44.3 447.3,-44.3 447.3,-17.8 447.3,-17.8 447.3,-11.8 453.3,-5.8 459.3,-5.8"/>
<text xml:space="preserve" text-anchor="middle" x="457.55" y="-26.5" font-family="Times,serif" font-size="14.00" fill="white"> </text>
<polyline fill="none" stroke="white" points="467.8,-5.8 467.8,-56.3"/>
<text xml:space="preserve" text-anchor="middle" x="492.3" y="-26.37" font-family="Times,serif" font-size="14.00" fill="white">copy</text>
<polyline fill="none" stroke="white" points="516.8,-5.8 516.8,-56.3"/>
<text xml:space="preserve" text-anchor="middle" x="527.05" y="-39" font-family="Times,serif" font-size="14.00" fill="white"> </text>
<polyline fill="none" stroke="white" points="516.8,-31.05 537.3,-31.05"/>
<text xml:space="preserve" text-anchor="middle" x="527.05" y="-13.75" font-family="Times,serif" font-size="14.00" fill="white"> </text>
</g>
<!-- n_3&#45;&gt;e_2 -->
<g id="edge10" class="edge">
<title>n_3&#45;&gt;e_2:s_0</title>
<path fill="none" stroke="white" d="M411.64,-31.06C416.17,-31.08 433.24,-31.18 447.3,-31.18"/>
</g>
<!-- n_4 -->
<g id="node5" class="node">
<title>n_4</title>
<ellipse fill="white" stroke="white" cx="575.1" cy="-43.05" rx="1.8" ry="1.8"/>
<text xml:space="preserve" text-anchor="middle" x="567.3" y="-27.95" font-family="Times,serif" font-size="14.00" fill="white">ℝ</text>
</g>
<!-- targets -->
<g id="node11" class="node">
<title>targets</title>
</g>
<!-- n_4&#45;&gt;targets -->
<g id="edge3" class="edge">
<title>n_4&#45;&gt;targets:p_0</title>
<path fill="none" stroke="white" stroke-dasharray="5,2" d="M577.24,-43.08C581.77,-43.21 598.84,-43.67 612.9,-43.67"/>
</g>
<!-- n_5 -->
<g id="node6" class="node">
<title>n_5</title>
<ellipse fill="white" stroke="white" cx="575.1" cy="-19.05" rx="1.8" ry="1.8"/>
<text xml:space="preserve" text-anchor="middle" x="567.3" y="-3.95" font-family="Times,serif" font-size="14.00" fill="white">ℝ</text>
</g>
<!-- n_5&#45;&gt;targets -->
<g id="edge4" class="edge">
<title>n_5&#45;&gt;targets:p_1</title>
<path fill="none" stroke="white" stroke-dasharray="5,2" d="M577.24,-19.02C581.77,-18.89 598.84,-18.43 612.9,-18.43"/>
</g>
<!-- e_0&#45;&gt;n_2 -->
<g id="edge7" class="edge">
<title>e_0:t_0&#45;&gt;n_2</title>
<path fill="none" stroke="white" d="M212.85,-31.18C226.91,-31.18 243.98,-31.08 248.51,-31.06"/>
</g>
<!-- e_1&#45;&gt;n_3 -->
<g id="edge9" class="edge">
<title>e_1:t_0&#45;&gt;n_3</title>
<path fill="none" stroke="white" d="M371.7,-31.43C385.76,-31.43 402.83,-31.15 407.36,-31.07"/>
</g>
<!-- e_2&#45;&gt;n_4 -->
<g id="edge11" class="edge">
<title>e_2:t_0&#45;&gt;n_4</title>
<path fill="none" stroke="white" d="M537.3,-43.67C551.36,-43.67 568.43,-43.21 572.96,-43.08"/>
</g>
<!-- e_2&#45;&gt;n_5 -->
<g id="edge12" class="edge">
<title>e_2:t_1&#45;&gt;n_5</title>
<path fill="none" stroke="white" d="M537.3,-18.43C551.36,-18.43 568.43,-18.89 572.96,-19.02"/>
</g>
<!-- sources -->
<g id="node10" class="node">
<title>sources</title>
</g>
<!-- sources&#45;&gt;n_0 -->
<g id="edge1" class="edge">
<title>sources:p_0&#45;&gt;n_0</title>
<path fill="none" stroke="white" stroke-dasharray="5,2" d="M54,-43.67C68.06,-43.67 85.13,-43.21 89.66,-43.08"/>
</g>
<!-- sources&#45;&gt;n_1 -->
<g id="edge2" class="edge">
<title>sources:p_1&#45;&gt;n_1</title>
<path fill="none" stroke="white" stroke-dasharray="5,2" d="M54,-18.43C68.06,-18.43 85.13,-18.89 89.66,-19.02"/>
</g>
</g>
</svg>
